<?xml version="1.0" encoding="UTF-8"?>
<!-- Created with Inkscape (http://www.inkscape.org/) -->
<svg width="512" height="512" version="1.1" viewBox="0 0 135.47 135.47" xmlns="http://www.w3.org/2000/svg">
 <g transform="translate(-65.343 -178.16)">
  <circle cx="133.08" cy="245.89" r="67.733" fill="#039"/>
  <path d="m114.35 208.8q3.8535 0 5.1782 3.131 1.4451 3.131 1.4451 9.2725 0 1.4451-0.24084 3.131-0.12042 1.5655-0.48169 2.8901l-0.24084-2.4084q2.8901-7.8274 8.9112-12.163 6.0211-4.4556 12.765-4.4556 7.4662 0 12.403 4.2148 5.0577 4.2148 7.4662 11.801 2.5289 7.5866 2.5289 17.943 0 6.3824-0.60211 12.644-0.48169 6.1415-1.4451 11.32-0.84296 5.0577-1.9268 8.3091-1.4451 4.0944-3.7331 6.1415-2.288 1.9268-5.419 1.9268t-4.8169-2.288-1.6859-6.1415q0-4.0944 0.60211-9.8746 0.60211-5.9007 1.0838-11.922 0.60211-6.1415 0.60211-11.079 0-16.859-11.079-16.859-5.9007 0-9.8746 5.2986-3.9739 5.1782-5.2986 14.812-0.36127 3.2514-0.36127 8.0683t0 9.6338q0.12042 4.6965-0.24084 7.9478-0.48169 7.2253-2.7697 10.356-2.1676 3.131-6.0211 3.131-4.4556 0-6.7436-4.0943-2.288-4.2148-2.288-14.089 0-5.0577 0.24084-11.32 0.24085-6.2619 0.60211-12.524 0.48169-6.3824 1.0838-11.561 1.2042-9.7542 3.4922-15.414 2.288-5.7803 6.864-5.7803z" fill="#fff" stroke-width="10.035" aria-label="n"/>
 </g>
</svg>
